<?xml version="1.0" encoding="utf-8"?>
<!-- Generator: Adobe Illustrator 24.3.0, SVG Export Plug-In . SVG Version: 6.00 Build 0)  -->
<svg version="1.1" xmlns="http://www.w3.org/2000/svg" xmlns:xlink="http://www.w3.org/1999/xlink" x="0px" y="0px"
	 viewBox="0 0 640 480" style="enable-background:new 0 0 640 480;" xml:space="preserve">
<style type="text/css">
	.st0{display:none;}
	.st1{display:inline;fill:none;stroke:#9B9B9B;stroke-miterlimit:10;}
	.st2{fill:#E75A70;}
	.st3{fill:#662113;}
	.st4{fill:#FFFFFF;}
	.st5{fill:#E1E8ED;}
	.st6{fill:#292F33;}
	.st7{fill:#F5F8FA;}
	.st8{fill:#8B5E3C;}
	.st9{font-family:'ArialRoundedMTBold';}
	.st10{font-size:21px;}
</style>
<g id="Layer_3" class="st0">
	
		<image style="display:inline;overflow:visible;" width="800" height="600" xlink:href="4AE010FC.jpg"  transform="matrix(0.8 0 0 0.8 0 0)">
	</image>
</g>
<g id="grid" class="st0">
	<rect class="st1" width="32" height="32"/>
	<rect x="32" class="st1" width="32" height="32"/>
	<rect x="64" class="st1" width="32" height="32"/>
	<rect x="96" class="st1" width="32" height="32"/>
	<rect x="128" class="st1" width="32" height="32"/>
	<rect x="160" class="st1" width="32" height="32"/>
	<rect x="192" class="st1" width="32" height="32"/>
	<rect x="224" class="st1" width="32" height="32"/>
	<rect x="256" class="st1" width="32" height="32"/>
	<rect x="288" class="st1" width="32" height="32"/>
	<rect x="320" class="st1" width="32" height="32"/>
	<rect x="352" class="st1" width="32" height="32"/>
	<rect x="384" class="st1" width="32" height="32"/>
	<rect x="416" class="st1" width="32" height="32"/>
	<rect x="448" class="st1" width="32" height="32"/>
	<rect x="480" class="st1" width="32" height="32"/>
	<rect x="512" class="st1" width="32" height="32"/>
	<rect x="544" class="st1" width="32" height="32"/>
	<rect x="576" class="st1" width="32" height="32"/>
	<rect x="608" class="st1" width="32" height="32"/>
	<rect y="32" class="st1" width="32" height="32"/>
	<rect x="32" y="32" class="st1" width="32" height="32"/>
	<rect x="64" y="32" class="st1" width="32" height="32"/>
	<rect x="96" y="32" class="st1" width="32" height="32"/>
	<rect x="128" y="32" class="st1" width="32" height="32"/>
	<rect x="160" y="32" class="st1" width="32" height="32"/>
	<rect x="192" y="32" class="st1" width="32" height="32"/>
	<rect x="224" y="32" class="st1" width="32" height="32"/>
	<rect x="256" y="32" class="st1" width="32" height="32"/>
	<rect x="288" y="32" class="st1" width="32" height="32"/>
	<rect x="320" y="32" class="st1" width="32" height="32"/>
	<rect x="352" y="32" class="st1" width="32" height="32"/>
	<rect x="384" y="32" class="st1" width="32" height="32"/>
	<rect x="416" y="32" class="st1" width="32" height="32"/>
	<rect x="448" y="32" class="st1" width="32" height="32"/>
	<rect x="480" y="32" class="st1" width="32" height="32"/>
	<rect x="512" y="32" class="st1" width="32" height="32"/>
	<rect x="544" y="32" class="st1" width="32" height="32"/>
	<rect x="576" y="32" class="st1" width="32" height="32"/>
	<rect x="608" y="32" class="st1" width="32" height="32"/>
	<rect y="64" class="st1" width="32" height="32"/>
	<rect x="32" y="64" class="st1" width="32" height="32"/>
	<rect x="64" y="64" class="st1" width="32" height="32"/>
	<rect x="96" y="64" class="st1" width="32" height="32"/>
	<rect x="128" y="64" class="st1" width="32" height="32"/>
	<rect x="160" y="64" class="st1" width="32" height="32"/>
	<rect x="192" y="64" class="st1" width="32" height="32"/>
	<rect x="224" y="64" class="st1" width="32" height="32"/>
	<rect x="256" y="64" class="st1" width="32" height="32"/>
	<rect x="288" y="64" class="st1" width="32" height="32"/>
	<rect x="320" y="64" class="st1" width="32" height="32"/>
	<rect x="352" y="64" class="st1" width="32" height="32"/>
	<rect x="384" y="64" class="st1" width="32" height="32"/>
	<rect x="416" y="64" class="st1" width="32" height="32"/>
	<rect x="448" y="64" class="st1" width="32" height="32"/>
	<rect x="480" y="64" class="st1" width="32" height="32"/>
	<rect x="512" y="64" class="st1" width="32" height="32"/>
	<rect x="544" y="64" class="st1" width="32" height="32"/>
	<rect x="576" y="64" class="st1" width="32" height="32"/>
	<rect x="608" y="64" class="st1" width="32" height="32"/>
	<rect y="96" class="st1" width="32" height="32"/>
	<rect x="32" y="96" class="st1" width="32" height="32"/>
	<rect x="64" y="96" class="st1" width="32" height="32"/>
	<rect x="96" y="96" class="st1" width="32" height="32"/>
	<rect x="128" y="96" class="st1" width="32" height="32"/>
	<rect x="160" y="96" class="st1" width="32" height="32"/>
	<rect x="192" y="96" class="st1" width="32" height="32"/>
	<rect x="224" y="96" class="st1" width="32" height="32"/>
	<rect x="256" y="96" class="st1" width="32" height="32"/>
	<rect x="288" y="96" class="st1" width="32" height="32"/>
	<rect x="320" y="96" class="st1" width="32" height="32"/>
	<rect x="352" y="96" class="st1" width="32" height="32"/>
	<rect x="384" y="96" class="st1" width="32" height="32"/>
	<rect x="416" y="96" class="st1" width="32" height="32"/>
	<rect x="448" y="96" class="st1" width="32" height="32"/>
	<rect x="480" y="96" class="st1" width="32" height="32"/>
	<rect x="512" y="96" class="st1" width="32" height="32"/>
	<rect x="544" y="96" class="st1" width="32" height="32"/>
	<rect x="576" y="96" class="st1" width="32" height="32"/>
	<rect x="608" y="96" class="st1" width="32" height="32"/>
	<rect y="128" class="st1" width="32" height="32"/>
	<rect x="32" y="128" class="st1" width="32" height="32"/>
	<rect x="64" y="128" class="st1" width="32" height="32"/>
	<rect x="96" y="128" class="st1" width="32" height="32"/>
	<rect x="128" y="128" class="st1" width="32" height="32"/>
	<rect x="160" y="128" class="st1" width="32" height="32"/>
	<rect x="192" y="128" class="st1" width="32" height="32"/>
	<rect x="224" y="128" class="st1" width="32" height="32"/>
	<rect x="256" y="128" class="st1" width="32" height="32"/>
	<rect x="288" y="128" class="st1" width="32" height="32"/>
	<rect x="320" y="128" class="st1" width="32" height="32"/>
	<rect x="352" y="128" class="st1" width="32" height="32"/>
	<rect x="384" y="128" class="st1" width="32" height="32"/>
	<rect x="416" y="128" class="st1" width="32" height="32"/>
	<rect x="448" y="128" class="st1" width="32" height="32"/>
	<rect x="480" y="128" class="st1" width="32" height="32"/>
	<rect x="512" y="128" class="st1" width="32" height="32"/>
	<rect x="544" y="128" class="st1" width="32" height="32"/>
	<rect x="576" y="128" class="st1" width="32" height="32"/>
	<rect x="608" y="128" class="st1" width="32" height="32"/>
	<rect y="160" class="st1" width="32" height="32"/>
	<rect x="32" y="160" class="st1" width="32" height="32"/>
	<rect x="64" y="160" class="st1" width="32" height="32"/>
	<rect x="96" y="160" class="st1" width="32" height="32"/>
	<rect x="128" y="160" class="st1" width="32" height="32"/>
	<rect x="160" y="160" class="st1" width="32" height="32"/>
	<rect x="192" y="160" class="st1" width="32" height="32"/>
	<rect x="224" y="160" class="st1" width="32" height="32"/>
	<rect x="256" y="160" class="st1" width="32" height="32"/>
	<rect x="288" y="160" class="st1" width="32" height="32"/>
	<rect x="320" y="160" class="st1" width="32" height="32"/>
	<rect x="352" y="160" class="st1" width="32" height="32"/>
	<rect x="384" y="160" class="st1" width="32" height="32"/>
	<rect x="416" y="160" class="st1" width="32" height="32"/>
	<rect x="448" y="160" class="st1" width="32" height="32"/>
	<rect x="480" y="160" class="st1" width="32" height="32"/>
	<rect x="512" y="160" class="st1" width="32" height="32"/>
	<rect x="544" y="160" class="st1" width="32" height="32"/>
	<rect x="576" y="160" class="st1" width="32" height="32"/>
	<rect x="608" y="160" class="st1" width="32" height="32"/>
	<rect y="192" class="st1" width="32" height="32"/>
	<rect x="32" y="192" class="st1" width="32" height="32"/>
	<rect x="64" y="192" class="st1" width="32" height="32"/>
	<rect x="96" y="192" class="st1" width="32" height="32"/>
	<rect x="128" y="192" class="st1" width="32" height="32"/>
	<rect x="160" y="192" class="st1" width="32" height="32"/>
	<rect x="192" y="192" class="st1" width="32" height="32"/>
	<rect x="224" y="192" class="st1" width="32" height="32"/>
	<rect x="256" y="192" class="st1" width="32" height="32"/>
	<rect x="288" y="192" class="st1" width="32" height="32"/>
	<rect x="320" y="192" class="st1" width="32" height="32"/>
	<rect x="352" y="192" class="st1" width="32" height="32"/>
	<rect x="384" y="192" class="st1" width="32" height="32"/>
	<rect x="416" y="192" class="st1" width="32" height="32"/>
	<rect x="448" y="192" class="st1" width="32" height="32"/>
	<rect x="480" y="192" class="st1" width="32" height="32"/>
	<rect x="512" y="192" class="st1" width="32" height="32"/>
	<rect x="544" y="192" class="st1" width="32" height="32"/>
	<rect x="576" y="192" class="st1" width="32" height="32"/>
	<rect x="608" y="192" class="st1" width="32" height="32"/>
	<rect y="224" class="st1" width="32" height="32"/>
	<rect x="32" y="224" class="st1" width="32" height="32"/>
	<rect x="64" y="224" class="st1" width="32" height="32"/>
	<rect x="96" y="224" class="st1" width="32" height="32"/>
	<rect x="128" y="224" class="st1" width="32" height="32"/>
	<rect x="160" y="224" class="st1" width="32" height="32"/>
	<rect x="192" y="224" class="st1" width="32" height="32"/>
	<rect x="224" y="224" class="st1" width="32" height="32"/>
	<rect x="256" y="224" class="st1" width="32" height="32"/>
	<rect x="288" y="224" class="st1" width="32" height="32"/>
	<rect x="320" y="224" class="st1" width="32" height="32"/>
	<rect x="352" y="224" class="st1" width="32" height="32"/>
	<rect x="384" y="224" class="st1" width="32" height="32"/>
	<rect x="416" y="224" class="st1" width="32" height="32"/>
	<rect x="448" y="224" class="st1" width="32" height="32"/>
	<rect x="480" y="224" class="st1" width="32" height="32"/>
	<rect x="512" y="224" class="st1" width="32" height="32"/>
	<rect x="544" y="224" class="st1" width="32" height="32"/>
	<rect x="576" y="224" class="st1" width="32" height="32"/>
	<rect x="608" y="224" class="st1" width="32" height="32"/>
	<rect y="256" class="st1" width="32" height="32"/>
	<rect x="32" y="256" class="st1" width="32" height="32"/>
	<rect x="64" y="256" class="st1" width="32" height="32"/>
	<rect x="96" y="256" class="st1" width="32" height="32"/>
	<rect x="128" y="256" class="st1" width="32" height="32"/>
	<rect x="160" y="256" class="st1" width="32" height="32"/>
	<rect x="192" y="256" class="st1" width="32" height="32"/>
	<rect x="224" y="256" class="st1" width="32" height="32"/>
	<rect x="256" y="256" class="st1" width="32" height="32"/>
	<rect x="288" y="256" class="st1" width="32" height="32"/>
	<rect x="320" y="256" class="st1" width="32" height="32"/>
	<rect x="352" y="256" class="st1" width="32" height="32"/>
	<rect x="384" y="256" class="st1" width="32" height="32"/>
	<rect x="416" y="256" class="st1" width="32" height="32"/>
	<rect x="448" y="256" class="st1" width="32" height="32"/>
	<rect x="480" y="256" class="st1" width="32" height="32"/>
	<rect x="512" y="256" class="st1" width="32" height="32"/>
	<rect x="544" y="256" class="st1" width="32" height="32"/>
	<rect x="576" y="256" class="st1" width="32" height="32"/>
	<rect x="608" y="256" class="st1" width="32" height="32"/>
	<rect y="288" class="st1" width="32" height="32"/>
	<rect x="32" y="288" class="st1" width="32" height="32"/>
	<rect x="64" y="288" class="st1" width="32" height="32"/>
	<rect x="96" y="288" class="st1" width="32" height="32"/>
	<rect x="128" y="288" class="st1" width="32" height="32"/>
	<rect x="160" y="288" class="st1" width="32" height="32"/>
	<rect x="192" y="288" class="st1" width="32" height="32"/>
	<rect x="224" y="288" class="st1" width="32" height="32"/>
	<rect x="256" y="288" class="st1" width="32" height="32"/>
	<rect x="288" y="288" class="st1" width="32" height="32"/>
	<rect x="320" y="288" class="st1" width="32" height="32"/>
	<rect x="352" y="288" class="st1" width="32" height="32"/>
	<rect x="384" y="288" class="st1" width="32" height="32"/>
	<rect x="416" y="288" class="st1" width="32" height="32"/>
	<rect x="448" y="288" class="st1" width="32" height="32"/>
	<rect x="480" y="288" class="st1" width="32" height="32"/>
	<rect x="512" y="288" class="st1" width="32" height="32"/>
	<rect x="544" y="288" class="st1" width="32" height="32"/>
	<rect x="576" y="288" class="st1" width="32" height="32"/>
	<rect x="608" y="288" class="st1" width="32" height="32"/>
	<rect y="320" class="st1" width="32" height="32"/>
	<rect x="32" y="320" class="st1" width="32" height="32"/>
	<rect x="64" y="320" class="st1" width="32" height="32"/>
	<rect x="96" y="320" class="st1" width="32" height="32"/>
	<rect x="128" y="320" class="st1" width="32" height="32"/>
	<rect x="160" y="320" class="st1" width="32" height="32"/>
	<rect x="192" y="320" class="st1" width="32" height="32"/>
	<rect x="224" y="320" class="st1" width="32" height="32"/>
	<rect x="256" y="320" class="st1" width="32" height="32"/>
	<rect x="288" y="320" class="st1" width="32" height="32"/>
	<rect x="320" y="320" class="st1" width="32" height="32"/>
	<rect x="352" y="320" class="st1" width="32" height="32"/>
	<rect x="384" y="320" class="st1" width="32" height="32"/>
	<rect x="416" y="320" class="st1" width="32" height="32"/>
	<rect x="448" y="320" class="st1" width="32" height="32"/>
	<rect x="480" y="320" class="st1" width="32" height="32"/>
	<rect x="512" y="320" class="st1" width="32" height="32"/>
	<rect x="544" y="320" class="st1" width="32" height="32"/>
	<rect x="576" y="320" class="st1" width="32" height="32"/>
	<rect x="608" y="320" class="st1" width="32" height="32"/>
	<rect y="352" class="st1" width="32" height="32"/>
	<rect x="32" y="352" class="st1" width="32" height="32"/>
	<rect x="64" y="352" class="st1" width="32" height="32"/>
	<rect x="96" y="352" class="st1" width="32" height="32"/>
	<rect x="128" y="352" class="st1" width="32" height="32"/>
	<rect x="160" y="352" class="st1" width="32" height="32"/>
	<rect x="192" y="352" class="st1" width="32" height="32"/>
	<rect x="224" y="352" class="st1" width="32" height="32"/>
	<rect x="256" y="352" class="st1" width="32" height="32"/>
	<rect x="288" y="352" class="st1" width="32" height="32"/>
	<rect x="320" y="352" class="st1" width="32" height="32"/>
	<rect x="352" y="352" class="st1" width="32" height="32"/>
	<rect x="384" y="352" class="st1" width="32" height="32"/>
	<rect x="416" y="352" class="st1" width="32" height="32"/>
	<rect x="448" y="352" class="st1" width="32" height="32"/>
	<rect x="480" y="352" class="st1" width="32" height="32"/>
	<rect x="512" y="352" class="st1" width="32" height="32"/>
	<rect x="544" y="352" class="st1" width="32" height="32"/>
	<rect x="576" y="352" class="st1" width="32" height="32"/>
	<rect x="608" y="352" class="st1" width="32" height="32"/>
	<rect y="384" class="st1" width="32" height="32"/>
	<rect x="32" y="384" class="st1" width="32" height="32"/>
	<rect x="64" y="384" class="st1" width="32" height="32"/>
	<rect x="96" y="384" class="st1" width="32" height="32"/>
	<rect x="128" y="384" class="st1" width="32" height="32"/>
	<rect x="160" y="384" class="st1" width="32" height="32"/>
	<rect x="192" y="384" class="st1" width="32" height="32"/>
	<rect x="224" y="384" class="st1" width="32" height="32"/>
	<rect x="256" y="384" class="st1" width="32" height="32"/>
	<rect x="288" y="384" class="st1" width="32" height="32"/>
	<rect x="320" y="384" class="st1" width="32" height="32"/>
	<rect x="352" y="384" class="st1" width="32" height="32"/>
	<rect x="384" y="384" class="st1" width="32" height="32"/>
	<rect x="416" y="384" class="st1" width="32" height="32"/>
	<rect x="448" y="384" class="st1" width="32" height="32"/>
	<rect x="480" y="384" class="st1" width="32" height="32"/>
	<rect x="512" y="384" class="st1" width="32" height="32"/>
	<rect x="544" y="384" class="st1" width="32" height="32"/>
	<rect x="576" y="384" class="st1" width="32" height="32"/>
	<rect x="608" y="384" class="st1" width="32" height="32"/>
	<rect y="416" class="st1" width="32" height="32"/>
	<rect x="32" y="416" class="st1" width="32" height="32"/>
	<rect x="64" y="416" class="st1" width="32" height="32"/>
	<rect x="96" y="416" class="st1" width="32" height="32"/>
	<rect x="128" y="416" class="st1" width="32" height="32"/>
	<rect x="160" y="416" class="st1" width="32" height="32"/>
	<rect x="192" y="416" class="st1" width="32" height="32"/>
	<rect x="224" y="416" class="st1" width="32" height="32"/>
	<rect x="256" y="416" class="st1" width="32" height="32"/>
	<rect x="288" y="416" class="st1" width="32" height="32"/>
	<rect x="320" y="416" class="st1" width="32" height="32"/>
	<rect x="352" y="416" class="st1" width="32" height="32"/>
	<rect x="384" y="416" class="st1" width="32" height="32"/>
	<rect x="416" y="416" class="st1" width="32" height="32"/>
	<rect x="448" y="416" class="st1" width="32" height="32"/>
	<rect x="480" y="416" class="st1" width="32" height="32"/>
	<rect x="512" y="416" class="st1" width="32" height="32"/>
	<rect x="544" y="416" class="st1" width="32" height="32"/>
	<rect x="576" y="416" class="st1" width="32" height="32"/>
	<rect x="608" y="416" class="st1" width="32" height="32"/>
	<rect y="448" class="st1" width="32" height="32"/>
	<rect x="32" y="448" class="st1" width="32" height="32"/>
	<rect x="64" y="448" class="st1" width="32" height="32"/>
	<rect x="96" y="448" class="st1" width="32" height="32"/>
	<rect x="128" y="448" class="st1" width="32" height="32"/>
	<rect x="160" y="448" class="st1" width="32" height="32"/>
	<rect x="192" y="448" class="st1" width="32" height="32"/>
	<rect x="224" y="448" class="st1" width="32" height="32"/>
	<rect x="256" y="448" class="st1" width="32" height="32"/>
	<rect x="288" y="448" class="st1" width="32" height="32"/>
	<rect x="320" y="448" class="st1" width="32" height="32"/>
	<rect x="352" y="448" class="st1" width="32" height="32"/>
	<rect x="384" y="448" class="st1" width="32" height="32"/>
	<rect x="416" y="448" class="st1" width="32" height="32"/>
	<rect x="448" y="448" class="st1" width="32" height="32"/>
	<rect x="480" y="448" class="st1" width="32" height="32"/>
	<rect x="512" y="448" class="st1" width="32" height="32"/>
	<rect x="544" y="448" class="st1" width="32" height="32"/>
	<rect x="576" y="448" class="st1" width="32" height="32"/>
	<rect x="608" y="448" class="st1" width="32" height="32"/>
</g>
<g id="Layer_1">
	<g>
		<g>
			<path class="st2" d="M-214,69.7c-18.8-14.1-24-24-32-24s-8,4-12,4s-4-4-12-4s-13.3,9.9-32,24c-16,12-28,12-28,20s20,24,32,36
				c8,8,20,16,40,16s32-8,40-16c12-12,32-28,32-36S-198,81.7-214,69.7z"/>
			<path class="st3" d="M-216.4,83.7c-17.7-5.9-29.6-8.3-41.6-8.3s-23.8,2.5-41.6,8.3c-15.1,5-26.4,2.7-26.4,6c0,3.3,36,20,68,20
				s68-16.7,68-20C-190,86.3-201.3,88.7-216.4,83.7z"/>
			<path class="st4" d="M-216.4,83.7c-17.7-5.9-29.6-8.3-41.6-8.3s-23.8,2.5-41.6,8.3c-14.5,4.8-25.5,2.9-26.4,5.6
				c9.8,1.5,36.5-2.6,67.9-2.6s58.1,4.1,67.9,2.6C-190.9,86.5-201.9,88.5-216.4,83.7z"/>
		</g>
		<g>
			<path class="st5" d="M-350.8,93.7c0,13.9-32.2,46.4-72,46.4c-39.8,0-72-28.5-72-46.4C-494.8,79.7-350.8,79.7-350.8,93.7z"/>
			<path class="st6" d="M-350.8,93.7h-144c0-14,32.2-46.4,72-46.4S-350.8,79.7-350.8,93.7z"/>
			<path class="st7" d="M-356.1,93.7c0,12.3-29.9,40.8-66.8,40.8c-36.9,0-66.8-25-66.8-40.8c0-12.3,29.9-40.8,66.8-40.8
				C-386,52.9-356.1,81.4-356.1,93.7z"/>
			<circle class="st8" cx="-422.8" cy="93.7" r="35.7"/>
			<circle class="st6" cx="-422.8" cy="93.7" r="19.9"/>
			<circle class="st7" cx="-435.5" cy="81" r="8.4"/>
		</g>
		<g>
			<path class="st5" d="M-21.1,93.7c0,13.9-32.2,46.4-72,46.4c-39.8,0-72-28.5-72-46.4C-165.1,79.7-21.1,79.7-21.1,93.7z"/>
			<path class="st6" d="M-21.1,93.7h-144c0-14,32.2-46.4,72-46.4S-21.1,79.7-21.1,93.7z"/>
			<path class="st7" d="M-26.3,93.7c0,12.3-29.9,40.8-66.8,40.8c-36.9,0-66.8-25-66.8-40.8c0-12.3,29.9-40.8,66.8-40.8
				C-56.2,52.9-26.3,81.4-26.3,93.7z"/>
			<circle class="st8" cx="-93.1" cy="93.7" r="35.7"/>
			<circle class="st6" cx="-93.1" cy="93.7" r="19.9"/>
			<circle class="st7" cx="-105.8" cy="81" r="8.4"/>
		</g>
	</g>
	<text transform="matrix(1 0 0 1 -323.7963 404.4124)" class="st9" style="font-size:24px;">easy mode || hard mode</text>
	<path d="M-331.8,396.3c0.1,0.7-0.1,1.3-0.6,1.7c-0.4,0.4-0.9,0.6-1.4,0.6h-14v10l-16-12l16-12v10h13.9
		C-332.9,394.6-332,395.3-331.8,396.3z"/>
	<path d="M-40.1,396.9c-0.1-0.7,0.1-1.3,0.6-1.7c0.4-0.4,0.9-0.6,1.4-0.6h14v-10l16,12l-16,12v-10h-13.9
		C-39,398.6-40,397.8-40.1,396.9z"/>
	<text transform="matrix(1 0 0 1 -265.7822 339.6832)" class="st9" style="font-size:24px;">“f” for tutorial</text>
	<text transform="matrix(1 0 0 1 46.5234 311.8565)"><tspan x="0" y="0" class="st9 st10">hello! i’m derek. can you throw those nuggets into my  </tspan><tspan x="-2.4" y="25.2" class="st9 st10">mouths? it’s hard for me to eat because of the way my  </tspan><tspan x="-0.4" y="50.4" class="st9 st10">mouths move all the time. use the arrow keys to move  </tspan><tspan x="-12.7" y="75.6" class="st9 st10">the nugget, and f to throw it! just be careful not to hit my  </tspan><tspan x="-12.4" y="100.8" class="st9 st10">third eye! see how many you can feed me in one minute! </tspan><tspan x="178.9" y="126" class="st9 st10">press f to continue</tspan></text>
</g>
</svg>
