<?xml version="1.0" encoding="utf-8"?>
<!-- Generator: Adobe Illustrator 24.3.0, SVG Export Plug-In . SVG Version: 6.00 Build 0)  -->
<svg version="1.1" xmlns="http://www.w3.org/2000/svg" xmlns:xlink="http://www.w3.org/1999/xlink" x="0px" y="0px"
	 viewBox="0 0 640 480" style="enable-background:new 0 0 640 480;" xml:space="preserve">
<style type="text/css">
	.st0{display:none;}
	.st1{display:inline;fill:none;stroke:#9B9B9B;stroke-miterlimit:10;}
	.st2{fill:#E75A70;}
	.st3{fill:#662113;}
	.st4{fill:#FFFFFF;}
	.st5{fill:#E1E8ED;}
	.st6{fill:#292F33;}
	.st7{fill:#F5F8FA;}
	.st8{fill:#8B5E3C;}
</style>
<g id="Layer_3" class="st0">
	
		<image style="display:inline;overflow:visible;" width="800" height="600" xlink:href="4AE010FB.jpg"  transform="matrix(0.8 0 0 0.8 0 0)">
	</image>
</g>
<g id="grid" class="st0">
	<rect class="st1" width="32" height="32"/>
	<rect x="32" class="st1" width="32" height="32"/>
	<rect x="64" class="st1" width="32" height="32"/>
	<rect x="96" class="st1" width="32" height="32"/>
	<rect x="128" class="st1" width="32" height="32"/>
	<rect x="160" class="st1" width="32" height="32"/>
	<rect x="192" class="st1" width="32" height="32"/>
	<rect x="224" class="st1" width="32" height="32"/>
	<rect x="256" class="st1" width="32" height="32"/>
	<rect x="288" class="st1" width="32" height="32"/>
	<rect x="320" class="st1" width="32" height="32"/>
	<rect x="352" class="st1" width="32" height="32"/>
	<rect x="384" class="st1" width="32" height="32"/>
	<rect x="416" class="st1" width="32" height="32"/>
	<rect x="448" class="st1" width="32" height="32"/>
	<rect x="480" class="st1" width="32" height="32"/>
	<rect x="512" class="st1" width="32" height="32"/>
	<rect x="544" class="st1" width="32" height="32"/>
	<rect x="576" class="st1" width="32" height="32"/>
	<rect x="608" class="st1" width="32" height="32"/>
	<rect y="32" class="st1" width="32" height="32"/>
	<rect x="32" y="32" class="st1" width="32" height="32"/>
	<rect x="64" y="32" class="st1" width="32" height="32"/>
	<rect x="96" y="32" class="st1" width="32" height="32"/>
	<rect x="128" y="32" class="st1" width="32" height="32"/>
	<rect x="160" y="32" class="st1" width="32" height="32"/>
	<rect x="192" y="32" class="st1" width="32" height="32"/>
	<rect x="224" y="32" class="st1" width="32" height="32"/>
	<rect x="256" y="32" class="st1" width="32" height="32"/>
	<rect x="288" y="32" class="st1" width="32" height="32"/>
	<rect x="320" y="32" class="st1" width="32" height="32"/>
	<rect x="352" y="32" class="st1" width="32" height="32"/>
	<rect x="384" y="32" class="st1" width="32" height="32"/>
	<rect x="416" y="32" class="st1" width="32" height="32"/>
	<rect x="448" y="32" class="st1" width="32" height="32"/>
	<rect x="480" y="32" class="st1" width="32" height="32"/>
	<rect x="512" y="32" class="st1" width="32" height="32"/>
	<rect x="544" y="32" class="st1" width="32" height="32"/>
	<rect x="576" y="32" class="st1" width="32" height="32"/>
	<rect x="608" y="32" class="st1" width="32" height="32"/>
	<rect y="64" class="st1" width="32" height="32"/>
	<rect x="32" y="64" class="st1" width="32" height="32"/>
	<rect x="64" y="64" class="st1" width="32" height="32"/>
	<rect x="96" y="64" class="st1" width="32" height="32"/>
	<rect x="128" y="64" class="st1" width="32" height="32"/>
	<rect x="160" y="64" class="st1" width="32" height="32"/>
	<rect x="192" y="64" class="st1" width="32" height="32"/>
	<rect x="224" y="64" class="st1" width="32" height="32"/>
	<rect x="256" y="64" class="st1" width="32" height="32"/>
	<rect x="288" y="64" class="st1" width="32" height="32"/>
	<rect x="320" y="64" class="st1" width="32" height="32"/>
	<rect x="352" y="64" class="st1" width="32" height="32"/>
	<rect x="384" y="64" class="st1" width="32" height="32"/>
	<rect x="416" y="64" class="st1" width="32" height="32"/>
	<rect x="448" y="64" class="st1" width="32" height="32"/>
	<rect x="480" y="64" class="st1" width="32" height="32"/>
	<rect x="512" y="64" class="st1" width="32" height="32"/>
	<rect x="544" y="64" class="st1" width="32" height="32"/>
	<rect x="576" y="64" class="st1" width="32" height="32"/>
	<rect x="608" y="64" class="st1" width="32" height="32"/>
	<rect y="96" class="st1" width="32" height="32"/>
	<rect x="32" y="96" class="st1" width="32" height="32"/>
	<rect x="64" y="96" class="st1" width="32" height="32"/>
	<rect x="96" y="96" class="st1" width="32" height="32"/>
	<rect x="128" y="96" class="st1" width="32" height="32"/>
	<rect x="160" y="96" class="st1" width="32" height="32"/>
	<rect x="192" y="96" class="st1" width="32" height="32"/>
	<rect x="224" y="96" class="st1" width="32" height="32"/>
	<rect x="256" y="96" class="st1" width="32" height="32"/>
	<rect x="288" y="96" class="st1" width="32" height="32"/>
	<rect x="320" y="96" class="st1" width="32" height="32"/>
	<rect x="352" y="96" class="st1" width="32" height="32"/>
	<rect x="384" y="96" class="st1" width="32" height="32"/>
	<rect x="416" y="96" class="st1" width="32" height="32"/>
	<rect x="448" y="96" class="st1" width="32" height="32"/>
	<rect x="480" y="96" class="st1" width="32" height="32"/>
	<rect x="512" y="96" class="st1" width="32" height="32"/>
	<rect x="544" y="96" class="st1" width="32" height="32"/>
	<rect x="576" y="96" class="st1" width="32" height="32"/>
	<rect x="608" y="96" class="st1" width="32" height="32"/>
	<rect y="128" class="st1" width="32" height="32"/>
	<rect x="32" y="128" class="st1" width="32" height="32"/>
	<rect x="64" y="128" class="st1" width="32" height="32"/>
	<rect x="96" y="128" class="st1" width="32" height="32"/>
	<rect x="128" y="128" class="st1" width="32" height="32"/>
	<rect x="160" y="128" class="st1" width="32" height="32"/>
	<rect x="192" y="128" class="st1" width="32" height="32"/>
	<rect x="224" y="128" class="st1" width="32" height="32"/>
	<rect x="256" y="128" class="st1" width="32" height="32"/>
	<rect x="288" y="128" class="st1" width="32" height="32"/>
	<rect x="320" y="128" class="st1" width="32" height="32"/>
	<rect x="352" y="128" class="st1" width="32" height="32"/>
	<rect x="384" y="128" class="st1" width="32" height="32"/>
	<rect x="416" y="128" class="st1" width="32" height="32"/>
	<rect x="448" y="128" class="st1" width="32" height="32"/>
	<rect x="480" y="128" class="st1" width="32" height="32"/>
	<rect x="512" y="128" class="st1" width="32" height="32"/>
	<rect x="544" y="128" class="st1" width="32" height="32"/>
	<rect x="576" y="128" class="st1" width="32" height="32"/>
	<rect x="608" y="128" class="st1" width="32" height="32"/>
	<rect y="160" class="st1" width="32" height="32"/>
	<rect x="32" y="160" class="st1" width="32" height="32"/>
	<rect x="64" y="160" class="st1" width="32" height="32"/>
	<rect x="96" y="160" class="st1" width="32" height="32"/>
	<rect x="128" y="160" class="st1" width="32" height="32"/>
	<rect x="160" y="160" class="st1" width="32" height="32"/>
	<rect x="192" y="160" class="st1" width="32" height="32"/>
	<rect x="224" y="160" class="st1" width="32" height="32"/>
	<rect x="256" y="160" class="st1" width="32" height="32"/>
	<rect x="288" y="160" class="st1" width="32" height="32"/>
	<rect x="320" y="160" class="st1" width="32" height="32"/>
	<rect x="352" y="160" class="st1" width="32" height="32"/>
	<rect x="384" y="160" class="st1" width="32" height="32"/>
	<rect x="416" y="160" class="st1" width="32" height="32"/>
	<rect x="448" y="160" class="st1" width="32" height="32"/>
	<rect x="480" y="160" class="st1" width="32" height="32"/>
	<rect x="512" y="160" class="st1" width="32" height="32"/>
	<rect x="544" y="160" class="st1" width="32" height="32"/>
	<rect x="576" y="160" class="st1" width="32" height="32"/>
	<rect x="608" y="160" class="st1" width="32" height="32"/>
	<rect y="192" class="st1" width="32" height="32"/>
	<rect x="32" y="192" class="st1" width="32" height="32"/>
	<rect x="64" y="192" class="st1" width="32" height="32"/>
	<rect x="96" y="192" class="st1" width="32" height="32"/>
	<rect x="128" y="192" class="st1" width="32" height="32"/>
	<rect x="160" y="192" class="st1" width="32" height="32"/>
	<rect x="192" y="192" class="st1" width="32" height="32"/>
	<rect x="224" y="192" class="st1" width="32" height="32"/>
	<rect x="256" y="192" class="st1" width="32" height="32"/>
	<rect x="288" y="192" class="st1" width="32" height="32"/>
	<rect x="320" y="192" class="st1" width="32" height="32"/>
	<rect x="352" y="192" class="st1" width="32" height="32"/>
	<rect x="384" y="192" class="st1" width="32" height="32"/>
	<rect x="416" y="192" class="st1" width="32" height="32"/>
	<rect x="448" y="192" class="st1" width="32" height="32"/>
	<rect x="480" y="192" class="st1" width="32" height="32"/>
	<rect x="512" y="192" class="st1" width="32" height="32"/>
	<rect x="544" y="192" class="st1" width="32" height="32"/>
	<rect x="576" y="192" class="st1" width="32" height="32"/>
	<rect x="608" y="192" class="st1" width="32" height="32"/>
	<rect y="224" class="st1" width="32" height="32"/>
	<rect x="32" y="224" class="st1" width="32" height="32"/>
	<rect x="64" y="224" class="st1" width="32" height="32"/>
	<rect x="96" y="224" class="st1" width="32" height="32"/>
	<rect x="128" y="224" class="st1" width="32" height="32"/>
	<rect x="160" y="224" class="st1" width="32" height="32"/>
	<rect x="192" y="224" class="st1" width="32" height="32"/>
	<rect x="224" y="224" class="st1" width="32" height="32"/>
	<rect x="256" y="224" class="st1" width="32" height="32"/>
	<rect x="288" y="224" class="st1" width="32" height="32"/>
	<rect x="320" y="224" class="st1" width="32" height="32"/>
	<rect x="352" y="224" class="st1" width="32" height="32"/>
	<rect x="384" y="224" class="st1" width="32" height="32"/>
	<rect x="416" y="224" class="st1" width="32" height="32"/>
	<rect x="448" y="224" class="st1" width="32" height="32"/>
	<rect x="480" y="224" class="st1" width="32" height="32"/>
	<rect x="512" y="224" class="st1" width="32" height="32"/>
	<rect x="544" y="224" class="st1" width="32" height="32"/>
	<rect x="576" y="224" class="st1" width="32" height="32"/>
	<rect x="608" y="224" class="st1" width="32" height="32"/>
	<rect y="256" class="st1" width="32" height="32"/>
	<rect x="32" y="256" class="st1" width="32" height="32"/>
	<rect x="64" y="256" class="st1" width="32" height="32"/>
	<rect x="96" y="256" class="st1" width="32" height="32"/>
	<rect x="128" y="256" class="st1" width="32" height="32"/>
	<rect x="160" y="256" class="st1" width="32" height="32"/>
	<rect x="192" y="256" class="st1" width="32" height="32"/>
	<rect x="224" y="256" class="st1" width="32" height="32"/>
	<rect x="256" y="256" class="st1" width="32" height="32"/>
	<rect x="288" y="256" class="st1" width="32" height="32"/>
	<rect x="320" y="256" class="st1" width="32" height="32"/>
	<rect x="352" y="256" class="st1" width="32" height="32"/>
	<rect x="384" y="256" class="st1" width="32" height="32"/>
	<rect x="416" y="256" class="st1" width="32" height="32"/>
	<rect x="448" y="256" class="st1" width="32" height="32"/>
	<rect x="480" y="256" class="st1" width="32" height="32"/>
	<rect x="512" y="256" class="st1" width="32" height="32"/>
	<rect x="544" y="256" class="st1" width="32" height="32"/>
	<rect x="576" y="256" class="st1" width="32" height="32"/>
	<rect x="608" y="256" class="st1" width="32" height="32"/>
	<rect y="288" class="st1" width="32" height="32"/>
	<rect x="32" y="288" class="st1" width="32" height="32"/>
	<rect x="64" y="288" class="st1" width="32" height="32"/>
	<rect x="96" y="288" class="st1" width="32" height="32"/>
	<rect x="128" y="288" class="st1" width="32" height="32"/>
	<rect x="160" y="288" class="st1" width="32" height="32"/>
	<rect x="192" y="288" class="st1" width="32" height="32"/>
	<rect x="224" y="288" class="st1" width="32" height="32"/>
	<rect x="256" y="288" class="st1" width="32" height="32"/>
	<rect x="288" y="288" class="st1" width="32" height="32"/>
	<rect x="320" y="288" class="st1" width="32" height="32"/>
	<rect x="352" y="288" class="st1" width="32" height="32"/>
	<rect x="384" y="288" class="st1" width="32" height="32"/>
	<rect x="416" y="288" class="st1" width="32" height="32"/>
	<rect x="448" y="288" class="st1" width="32" height="32"/>
	<rect x="480" y="288" class="st1" width="32" height="32"/>
	<rect x="512" y="288" class="st1" width="32" height="32"/>
	<rect x="544" y="288" class="st1" width="32" height="32"/>
	<rect x="576" y="288" class="st1" width="32" height="32"/>
	<rect x="608" y="288" class="st1" width="32" height="32"/>
	<rect y="320" class="st1" width="32" height="32"/>
	<rect x="32" y="320" class="st1" width="32" height="32"/>
	<rect x="64" y="320" class="st1" width="32" height="32"/>
	<rect x="96" y="320" class="st1" width="32" height="32"/>
	<rect x="128" y="320" class="st1" width="32" height="32"/>
	<rect x="160" y="320" class="st1" width="32" height="32"/>
	<rect x="192" y="320" class="st1" width="32" height="32"/>
	<rect x="224" y="320" class="st1" width="32" height="32"/>
	<rect x="256" y="320" class="st1" width="32" height="32"/>
	<rect x="288" y="320" class="st1" width="32" height="32"/>
	<rect x="320" y="320" class="st1" width="32" height="32"/>
	<rect x="352" y="320" class="st1" width="32" height="32"/>
	<rect x="384" y="320" class="st1" width="32" height="32"/>
	<rect x="416" y="320" class="st1" width="32" height="32"/>
	<rect x="448" y="320" class="st1" width="32" height="32"/>
	<rect x="480" y="320" class="st1" width="32" height="32"/>
	<rect x="512" y="320" class="st1" width="32" height="32"/>
	<rect x="544" y="320" class="st1" width="32" height="32"/>
	<rect x="576" y="320" class="st1" width="32" height="32"/>
	<rect x="608" y="320" class="st1" width="32" height="32"/>
	<rect y="352" class="st1" width="32" height="32"/>
	<rect x="32" y="352" class="st1" width="32" height="32"/>
	<rect x="64" y="352" class="st1" width="32" height="32"/>
	<rect x="96" y="352" class="st1" width="32" height="32"/>
	<rect x="128" y="352" class="st1" width="32" height="32"/>
	<rect x="160" y="352" class="st1" width="32" height="32"/>
	<rect x="192" y="352" class="st1" width="32" height="32"/>
	<rect x="224" y="352" class="st1" width="32" height="32"/>
	<rect x="256" y="352" class="st1" width="32" height="32"/>
	<rect x="288" y="352" class="st1" width="32" height="32"/>
	<rect x="320" y="352" class="st1" width="32" height="32"/>
	<rect x="352" y="352" class="st1" width="32" height="32"/>
	<rect x="384" y="352" class="st1" width="32" height="32"/>
	<rect x="416" y="352" class="st1" width="32" height="32"/>
	<rect x="448" y="352" class="st1" width="32" height="32"/>
	<rect x="480" y="352" class="st1" width="32" height="32"/>
	<rect x="512" y="352" class="st1" width="32" height="32"/>
	<rect x="544" y="352" class="st1" width="32" height="32"/>
	<rect x="576" y="352" class="st1" width="32" height="32"/>
	<rect x="608" y="352" class="st1" width="32" height="32"/>
	<rect y="384" class="st1" width="32" height="32"/>
	<rect x="32" y="384" class="st1" width="32" height="32"/>
	<rect x="64" y="384" class="st1" width="32" height="32"/>
	<rect x="96" y="384" class="st1" width="32" height="32"/>
	<rect x="128" y="384" class="st1" width="32" height="32"/>
	<rect x="160" y="384" class="st1" width="32" height="32"/>
	<rect x="192" y="384" class="st1" width="32" height="32"/>
	<rect x="224" y="384" class="st1" width="32" height="32"/>
	<rect x="256" y="384" class="st1" width="32" height="32"/>
	<rect x="288" y="384" class="st1" width="32" height="32"/>
	<rect x="320" y="384" class="st1" width="32" height="32"/>
	<rect x="352" y="384" class="st1" width="32" height="32"/>
	<rect x="384" y="384" class="st1" width="32" height="32"/>
	<rect x="416" y="384" class="st1" width="32" height="32"/>
	<rect x="448" y="384" class="st1" width="32" height="32"/>
	<rect x="480" y="384" class="st1" width="32" height="32"/>
	<rect x="512" y="384" class="st1" width="32" height="32"/>
	<rect x="544" y="384" class="st1" width="32" height="32"/>
	<rect x="576" y="384" class="st1" width="32" height="32"/>
	<rect x="608" y="384" class="st1" width="32" height="32"/>
	<rect y="416" class="st1" width="32" height="32"/>
	<rect x="32" y="416" class="st1" width="32" height="32"/>
	<rect x="64" y="416" class="st1" width="32" height="32"/>
	<rect x="96" y="416" class="st1" width="32" height="32"/>
	<rect x="128" y="416" class="st1" width="32" height="32"/>
	<rect x="160" y="416" class="st1" width="32" height="32"/>
	<rect x="192" y="416" class="st1" width="32" height="32"/>
	<rect x="224" y="416" class="st1" width="32" height="32"/>
	<rect x="256" y="416" class="st1" width="32" height="32"/>
	<rect x="288" y="416" class="st1" width="32" height="32"/>
	<rect x="320" y="416" class="st1" width="32" height="32"/>
	<rect x="352" y="416" class="st1" width="32" height="32"/>
	<rect x="384" y="416" class="st1" width="32" height="32"/>
	<rect x="416" y="416" class="st1" width="32" height="32"/>
	<rect x="448" y="416" class="st1" width="32" height="32"/>
	<rect x="480" y="416" class="st1" width="32" height="32"/>
	<rect x="512" y="416" class="st1" width="32" height="32"/>
	<rect x="544" y="416" class="st1" width="32" height="32"/>
	<rect x="576" y="416" class="st1" width="32" height="32"/>
	<rect x="608" y="416" class="st1" width="32" height="32"/>
	<rect y="448" class="st1" width="32" height="32"/>
	<rect x="32" y="448" class="st1" width="32" height="32"/>
	<rect x="64" y="448" class="st1" width="32" height="32"/>
	<rect x="96" y="448" class="st1" width="32" height="32"/>
	<rect x="128" y="448" class="st1" width="32" height="32"/>
	<rect x="160" y="448" class="st1" width="32" height="32"/>
	<rect x="192" y="448" class="st1" width="32" height="32"/>
	<rect x="224" y="448" class="st1" width="32" height="32"/>
	<rect x="256" y="448" class="st1" width="32" height="32"/>
	<rect x="288" y="448" class="st1" width="32" height="32"/>
	<rect x="320" y="448" class="st1" width="32" height="32"/>
	<rect x="352" y="448" class="st1" width="32" height="32"/>
	<rect x="384" y="448" class="st1" width="32" height="32"/>
	<rect x="416" y="448" class="st1" width="32" height="32"/>
	<rect x="448" y="448" class="st1" width="32" height="32"/>
	<rect x="480" y="448" class="st1" width="32" height="32"/>
	<rect x="512" y="448" class="st1" width="32" height="32"/>
	<rect x="544" y="448" class="st1" width="32" height="32"/>
	<rect x="576" y="448" class="st1" width="32" height="32"/>
	<rect x="608" y="448" class="st1" width="32" height="32"/>
</g>
<g id="Layer_1">
	<g>
		<g>
			<path class="st2" d="M364,96c-18.8-14.1-24-24-32-24s-8,4-12,4s-4-4-12-4s-13.3,9.9-32,24c-16,12-28,12-28,20s20,24,32,36
				c8,8,20,16,40,16s32-8,40-16c12-12,32-28,32-36S380,108,364,96z"/>
			<path class="st3" d="M361.6,110c-17.7-5.9-29.6-8.3-41.6-8.3s-23.8,2.5-41.6,8.3c-15.1,5-26.4,2.7-26.4,6c0,3.3,36,20,68,20
				s68-16.7,68-20C388,112.7,376.7,115,361.6,110z"/>
			<path class="st4" d="M361.6,110c-17.7-5.9-29.6-8.3-41.6-8.3s-23.8,2.5-41.6,8.3c-14.5,4.8-25.5,2.9-26.4,5.6
				c9.8,1.5,36.5-2.6,67.9-2.6s58.1,4.1,67.9,2.6C387,112.9,376,114.8,361.6,110z"/>
		</g>
		<g>
			<path class="st5" d="M227.1,120c0,13.9-32.2,46.4-72,46.4c-39.8,0-72-28.5-72-46.4C83.1,106,227.1,106,227.1,120z"/>
			<path class="st6" d="M227.1,120h-144c0-14,32.2-46.4,72-46.4S227.1,106,227.1,120z"/>
			<path class="st7" d="M221.9,120c0,12.3-29.9,40.8-66.8,40.8c-36.9,0-66.8-25-66.8-40.8c0-12.3,29.9-40.8,66.8-40.8
				C192,79.2,221.9,107.7,221.9,120z"/>
			<circle class="st8" cx="155.2" cy="120" r="35.7"/>
			<circle class="st6" cx="155.2" cy="120" r="19.9"/>
			<circle class="st7" cx="142.4" cy="107.3" r="8.4"/>
		</g>
		<g>
			<path class="st5" d="M556.9,120c0,13.9-32.2,46.4-72,46.4c-39.8,0-72-28.5-72-46.4C412.9,106,556.9,106,556.9,120z"/>
			<path class="st6" d="M556.9,120h-144c0-14,32.2-46.4,72-46.4S556.9,106,556.9,120z"/>
			<path class="st7" d="M551.6,120c0,12.3-29.9,40.8-66.8,40.8c-36.9,0-66.8-25-66.8-40.8c0-12.3,29.9-40.8,66.8-40.8
				C521.7,79.2,551.6,107.7,551.6,120z"/>
			<circle class="st8" cx="484.9" cy="120" r="35.7"/>
			<circle class="st6" cx="484.9" cy="120" r="19.9"/>
			<circle class="st7" cx="472.2" cy="107.3" r="8.4"/>
		</g>
	</g>
	<g>
		<path d="M204.4,394.8h-6.3c0,0.7,0.2,1.4,0.4,1.9s0.7,1,1.1,1.3s1,0.4,1.6,0.4c0.4,0,0.7,0,1-0.1s0.6-0.2,0.9-0.4s0.6-0.4,0.8-0.6
			s0.6-0.5,1-0.9c0.2-0.1,0.4-0.2,0.7-0.2c0.3,0,0.6,0.1,0.8,0.3s0.3,0.4,0.3,0.8c0,0.3-0.1,0.6-0.3,1s-0.6,0.8-1,1.1
			s-1,0.7-1.7,0.9s-1.5,0.4-2.4,0.4c-2.1,0-3.7-0.6-4.8-1.8s-1.7-2.8-1.7-4.8c0-0.9,0.1-1.8,0.4-2.6s0.7-1.5,1.2-2.1s1.2-1,2-1.3
			s1.7-0.5,2.6-0.5c1.2,0,2.3,0.3,3.2,0.8s1.6,1.2,2,2s0.7,1.7,0.7,2.6c0,0.8-0.2,1.3-0.7,1.6S205.2,394.8,204.4,394.8z M198.1,393
			h5.8c-0.1-1.1-0.4-1.9-0.9-2.5s-1.2-0.8-2-0.8c-0.8,0-1.5,0.3-2,0.8S198.2,391.9,198.1,393z"/>
		<path d="M217.8,398.7c-0.8,0.6-1.5,1.1-2.2,1.4s-1.5,0.5-2.4,0.5c-0.8,0-1.5-0.2-2.2-0.5s-1.1-0.8-1.4-1.3s-0.5-1.2-0.5-1.8
			c0-0.9,0.3-1.6,0.8-2.2c0.6-0.6,1.3-1,2.3-1.2c0.2,0,0.7-0.2,1.5-0.3s1.5-0.3,2.1-0.5s1.2-0.3,1.9-0.5c0-0.8-0.2-1.5-0.5-1.9
			s-0.9-0.6-1.9-0.6c-0.8,0-1.4,0.1-1.8,0.3s-0.8,0.6-1.1,1s-0.5,0.8-0.6,0.9s-0.4,0.2-0.8,0.2c-0.4,0-0.7-0.1-0.9-0.3
			c-0.3-0.2-0.4-0.5-0.4-0.9c0-0.6,0.2-1.1,0.6-1.6c0.4-0.5,1-1,1.9-1.3s1.9-0.5,3.2-0.5c1.4,0,2.5,0.2,3.3,0.5s1.4,0.9,1.7,1.6
			s0.5,1.7,0.5,2.9c0,0.8,0,1.4,0,1.9s0,1.1,0,1.7c0,0.6,0.1,1.2,0.3,1.9s0.3,1.1,0.3,1.3c0,0.3-0.2,0.6-0.5,0.9s-0.7,0.4-1,0.4
			c-0.3,0-0.7-0.2-1-0.5S218.2,399.3,217.8,398.7z M217.6,394.1c-0.5,0.2-1.2,0.4-2,0.5s-1.5,0.3-1.9,0.4s-0.7,0.3-1,0.5
			s-0.5,0.6-0.5,1.1c0,0.5,0.2,0.9,0.6,1.2s0.8,0.5,1.4,0.5c0.6,0,1.2-0.1,1.8-0.4s0.9-0.6,1.2-1.1c0.3-0.5,0.4-1.3,0.4-2.4V394.1z"
			/>
		<path d="M234.3,396.3c0,0.9-0.2,1.6-0.6,2.3s-1.1,1.1-1.9,1.4s-1.9,0.5-3.1,0.5c-1.1,0-2.1-0.2-3-0.5s-1.4-0.8-1.8-1.3
			s-0.6-1.1-0.6-1.6c0-0.4,0.1-0.7,0.4-0.9s0.6-0.4,0.9-0.4c0.3,0,0.6,0.1,0.8,0.2s0.4,0.4,0.5,0.7c0.3,0.6,0.7,1,1.2,1.3
			s1.1,0.4,1.9,0.4c0.6,0,1.2-0.1,1.6-0.4s0.6-0.6,0.6-1c0-0.6-0.2-1-0.6-1.2s-1.1-0.5-2.1-0.7c-1.1-0.3-2-0.6-2.7-0.9
			s-1.2-0.7-1.7-1.2s-0.6-1.1-0.6-1.8c0-0.6,0.2-1.2,0.6-1.8s0.9-1,1.7-1.4s1.6-0.5,2.7-0.5c0.8,0,1.6,0.1,2.2,0.3s1.2,0.4,1.7,0.7
			s0.8,0.6,1,1s0.3,0.7,0.3,1c0,0.4-0.1,0.7-0.4,0.9s-0.6,0.4-1,0.4c-0.3,0-0.6-0.1-0.8-0.3s-0.5-0.5-0.8-0.8
			c-0.2-0.3-0.5-0.6-0.9-0.8s-0.8-0.3-1.3-0.3c-0.6,0-1.1,0.1-1.4,0.4s-0.6,0.6-0.6,0.9c0,0.3,0.1,0.6,0.4,0.8s0.7,0.4,1.1,0.5
			s1.1,0.3,2,0.5c1,0.2,1.8,0.5,2.4,0.9s1.1,0.7,1.4,1.2S234.3,395.7,234.3,396.3z"/>
		<path d="M239.9,400.9l0.3-0.7l-3.9-9.9c-0.2-0.6-0.4-1-0.4-1.2c0-0.3,0.1-0.5,0.2-0.8s0.3-0.4,0.6-0.6s0.5-0.2,0.8-0.2
			c0.5,0,0.8,0.1,1,0.4s0.4,0.7,0.6,1.3l2.7,7.9l2.6-7.3c0.2-0.6,0.4-1.1,0.6-1.4s0.3-0.6,0.5-0.7s0.4-0.2,0.8-0.2
			c0.2,0,0.5,0.1,0.7,0.2s0.4,0.3,0.5,0.5s0.2,0.4,0.2,0.7c0,0.1-0.1,0.4-0.2,0.6s-0.2,0.6-0.3,0.8l-4.2,10.9
			c-0.4,1-0.7,1.7-1.1,2.3s-0.8,1-1.4,1.3s-1.3,0.4-2.3,0.4c-0.9,0-1.6-0.1-2.1-0.3s-0.7-0.6-0.7-1.1c0-0.4,0.1-0.7,0.3-0.8
			s0.6-0.3,1-0.3c0.2,0,0.3,0,0.5,0.1c0.2,0,0.4,0.1,0.5,0.1c0.4,0,0.7-0.1,0.9-0.2s0.4-0.3,0.6-0.6S239.7,401.4,239.9,400.9z"/>
		<path d="M266.6,394.2v4.3c0,0.7-0.2,1.2-0.5,1.5s-0.7,0.5-1.2,0.5c-0.5,0-0.9-0.2-1.2-0.5s-0.5-0.8-0.5-1.5v-5.1
			c0-0.8,0-1.4-0.1-1.9s-0.2-0.8-0.4-1.1s-0.6-0.4-1.1-0.4c-1,0-1.7,0.4-2.1,1.1s-0.5,1.8-0.5,3.1v4.3c0,0.7-0.2,1.2-0.5,1.5
			s-0.7,0.5-1.2,0.5c-0.5,0-0.9-0.2-1.2-0.5s-0.5-0.8-0.5-1.5v-9.2c0-0.6,0.1-1.1,0.4-1.4s0.6-0.5,1.1-0.5c0.4,0,0.8,0.1,1.1,0.4
			s0.4,0.7,0.4,1.2v0.3c0.6-0.7,1.1-1.2,1.8-1.5s1.3-0.5,2.1-0.5c0.8,0,1.5,0.2,2.1,0.5s1.1,0.8,1.4,1.5c0.5-0.7,1.1-1.1,1.7-1.5
			s1.3-0.5,2.1-0.5c0.9,0,1.6,0.2,2.3,0.5s1.1,0.8,1.4,1.5c0.3,0.6,0.4,1.5,0.4,2.7v6.2c0,0.7-0.2,1.2-0.5,1.5s-0.7,0.5-1.2,0.5
			c-0.5,0-0.9-0.2-1.2-0.5s-0.5-0.8-0.5-1.5v-5.4c0-0.7,0-1.2-0.1-1.7s-0.2-0.8-0.5-1s-0.6-0.4-1.2-0.4c-0.4,0-0.8,0.1-1.2,0.4
			s-0.7,0.6-0.9,1C266.8,391.9,266.6,392.9,266.6,394.2z"/>
		<path d="M289.2,394c0,1-0.1,1.8-0.4,2.6s-0.7,1.5-1.3,2.1s-1.2,1-2,1.3s-1.7,0.5-2.6,0.5c-1,0-1.8-0.2-2.6-0.5s-1.4-0.8-2-1.3
			s-1-1.3-1.3-2.1s-0.4-1.7-0.4-2.6c0-1,0.1-1.9,0.4-2.7s0.7-1.5,1.3-2.1s1.2-1,2-1.3s1.7-0.5,2.6-0.5c1,0,1.8,0.2,2.6,0.5
			s1.5,0.8,2,1.3s1,1.3,1.3,2.1S289.2,393,289.2,394z M286,394c0-1.3-0.3-2.3-0.9-3s-1.3-1.1-2.3-1.1c-0.6,0-1.2,0.2-1.7,0.5
			s-0.8,0.8-1.1,1.4s-0.4,1.4-0.4,2.2c0,0.8,0.1,1.6,0.4,2.2s0.6,1.1,1.1,1.4s1,0.5,1.7,0.5c1,0,1.7-0.4,2.3-1.1S286,395.3,286,394z
			"/>
		<path d="M300.5,398.7v-0.3c-0.4,0.5-0.9,0.9-1.3,1.2s-0.9,0.5-1.4,0.7s-1,0.2-1.6,0.2c-0.8,0-1.5-0.2-2.1-0.5s-1.2-0.8-1.7-1.4
			s-0.8-1.3-1.1-2.1s-0.4-1.7-0.4-2.6c0-2,0.5-3.6,1.5-4.7s2.3-1.7,3.9-1.7c0.9,0,1.7,0.2,2.3,0.5s1.2,0.8,1.9,1.5v-4.7
			c0-0.7,0.1-1.2,0.4-1.5s0.6-0.5,1.1-0.5s0.9,0.2,1.1,0.5s0.4,0.8,0.4,1.4v14.1c0,0.6-0.1,1.1-0.4,1.4s-0.6,0.5-1.1,0.5
			c-0.4,0-0.8-0.2-1.1-0.5S300.5,399.3,300.5,398.7z M294.2,394c0,0.9,0.1,1.6,0.4,2.2s0.6,1.1,1.1,1.4s1,0.5,1.5,0.5
			c0.6,0,1.1-0.1,1.5-0.4s0.8-0.7,1.1-1.3s0.4-1.4,0.4-2.3c0-0.9-0.1-1.6-0.4-2.2s-0.7-1.1-1.1-1.4s-1-0.5-1.6-0.5
			c-0.6,0-1.1,0.2-1.6,0.5s-0.8,0.8-1.1,1.4S294.2,393.1,294.2,394z"/>
		<path d="M315.7,394.8h-6.3c0,0.7,0.2,1.4,0.4,1.9s0.7,1,1.1,1.3s1,0.4,1.6,0.4c0.4,0,0.7,0,1-0.1s0.6-0.2,0.9-0.4s0.6-0.4,0.8-0.6
			s0.6-0.5,1-0.9c0.2-0.1,0.4-0.2,0.7-0.2c0.3,0,0.6,0.1,0.8,0.3s0.3,0.4,0.3,0.8c0,0.3-0.1,0.6-0.3,1s-0.6,0.8-1,1.1
			s-1,0.7-1.7,0.9s-1.5,0.4-2.4,0.4c-2.1,0-3.7-0.6-4.8-1.8s-1.7-2.8-1.7-4.8c0-0.9,0.1-1.8,0.4-2.6s0.7-1.5,1.2-2.1s1.2-1,2-1.3
			s1.7-0.5,2.6-0.5c1.2,0,2.3,0.3,3.2,0.8s1.6,1.2,2,2s0.7,1.7,0.7,2.6c0,0.8-0.2,1.3-0.7,1.6S316.5,394.8,315.7,394.8z M309.4,393
			h5.8c-0.1-1.1-0.4-1.9-0.9-2.5s-1.2-0.8-2-0.8c-0.8,0-1.5,0.3-2,0.8S309.5,391.9,309.4,393z"/>
		<path d="M330.1,384.7v4.7c0.4-0.5,0.8-0.8,1.2-1.1s0.8-0.5,1.3-0.6s1-0.2,1.5-0.2c0.8,0,1.5,0.2,2.2,0.5s1.1,0.8,1.5,1.5
			c0.2,0.4,0.4,0.8,0.5,1.3s0.1,1,0.1,1.6v6.1c0,0.6-0.1,1.1-0.4,1.5s-0.7,0.5-1.2,0.5c-1.1,0-1.6-0.6-1.6-1.9v-5.4
			c0-1-0.2-1.8-0.5-2.4s-0.9-0.8-1.7-0.8c-0.6,0-1.1,0.2-1.5,0.5s-0.8,0.8-1,1.3c-0.2,0.5-0.3,1.3-0.3,2.5v4.2
			c0,0.6-0.1,1.1-0.4,1.4s-0.7,0.5-1.2,0.5c-1.1,0-1.6-0.6-1.6-1.9v-13.9c0-0.6,0.1-1.1,0.4-1.5s0.7-0.5,1.2-0.5
			c0.5,0,0.9,0.2,1.2,0.5S330.1,384,330.1,384.7z"/>
		<path d="M349.6,398.7c-0.8,0.6-1.5,1.1-2.2,1.4s-1.5,0.5-2.4,0.5c-0.8,0-1.5-0.2-2.2-0.5s-1.1-0.8-1.4-1.3s-0.5-1.2-0.5-1.8
			c0-0.9,0.3-1.6,0.8-2.2s1.3-1,2.3-1.2c0.2,0,0.7-0.2,1.5-0.3s1.5-0.3,2.1-0.5s1.2-0.3,1.9-0.5c0-0.8-0.2-1.5-0.5-1.9
			s-0.9-0.6-1.9-0.6c-0.8,0-1.4,0.1-1.8,0.3s-0.8,0.6-1.1,1s-0.5,0.8-0.6,0.9s-0.4,0.2-0.8,0.2c-0.4,0-0.7-0.1-0.9-0.3
			s-0.4-0.5-0.4-0.9c0-0.6,0.2-1.1,0.6-1.6s1-1,1.9-1.3s1.9-0.5,3.2-0.5c1.4,0,2.5,0.2,3.3,0.5s1.4,0.9,1.7,1.6s0.5,1.7,0.5,2.9
			c0,0.8,0,1.4,0,1.9s0,1.1,0,1.7c0,0.6,0.1,1.2,0.3,1.9s0.3,1.1,0.3,1.3c0,0.3-0.2,0.6-0.5,0.9s-0.7,0.4-1,0.4
			c-0.3,0-0.7-0.2-1-0.5S349.9,399.3,349.6,398.7z M349.4,394.1c-0.5,0.2-1.2,0.4-2,0.5s-1.5,0.3-1.9,0.4s-0.7,0.3-1,0.5
			s-0.5,0.6-0.5,1.1c0,0.5,0.2,0.9,0.6,1.2s0.8,0.5,1.4,0.5c0.6,0,1.2-0.1,1.8-0.4s0.9-0.6,1.2-1.1c0.3-0.5,0.4-1.3,0.4-2.4V394.1z"
			/>
		<path d="M358.9,395.9v2.7c0,0.6-0.2,1.1-0.5,1.5s-0.7,0.5-1.2,0.5c-0.5,0-0.8-0.2-1.1-0.5s-0.4-0.8-0.4-1.5v-8.9
			c0-1.4,0.5-2.2,1.6-2.2c0.5,0,0.9,0.2,1.1,0.5s0.4,0.8,0.4,1.5c0.4-0.7,0.8-1.2,1.2-1.5s0.9-0.5,1.6-0.5s1.3,0.2,2,0.5
			s0.9,0.8,0.9,1.3c0,0.4-0.1,0.7-0.4,1s-0.6,0.4-0.9,0.4c-0.1,0-0.4-0.1-0.8-0.2s-0.8-0.2-1.2-0.2c-0.5,0-0.9,0.1-1.1,0.4
			s-0.5,0.6-0.7,1.1s-0.3,1.1-0.3,1.7S358.9,394.9,358.9,395.9z"/>
		<path d="M374.4,398.7v-0.3c-0.4,0.5-0.9,0.9-1.3,1.2s-0.9,0.5-1.4,0.7s-1,0.2-1.6,0.2c-0.8,0-1.5-0.2-2.1-0.5s-1.2-0.8-1.7-1.4
			s-0.8-1.3-1.1-2.1s-0.4-1.7-0.4-2.6c0-2,0.5-3.6,1.5-4.7s2.3-1.7,3.9-1.7c0.9,0,1.7,0.2,2.3,0.5s1.2,0.8,1.9,1.5v-4.7
			c0-0.7,0.1-1.2,0.4-1.5s0.6-0.5,1.1-0.5s0.9,0.2,1.1,0.5s0.4,0.8,0.4,1.4v14.1c0,0.6-0.1,1.1-0.4,1.4s-0.6,0.5-1.1,0.5
			c-0.4,0-0.8-0.2-1.1-0.5S374.4,399.3,374.4,398.7z M368.1,394c0,0.9,0.1,1.6,0.4,2.2s0.6,1.1,1.1,1.4s1,0.5,1.5,0.5
			c0.6,0,1.1-0.1,1.5-0.4s0.8-0.7,1.1-1.3s0.4-1.4,0.4-2.3c0-0.9-0.1-1.6-0.4-2.2s-0.7-1.1-1.1-1.4s-1-0.5-1.6-0.5
			c-0.6,0-1.1,0.2-1.6,0.5s-0.8,0.8-1.1,1.4S368.1,393.1,368.1,394z"/>
		<path d="M397.3,394.2v4.3c0,0.7-0.2,1.2-0.5,1.5s-0.7,0.5-1.2,0.5c-0.5,0-0.9-0.2-1.2-0.5s-0.5-0.8-0.5-1.5v-5.1
			c0-0.8,0-1.4-0.1-1.9s-0.2-0.8-0.4-1.1s-0.6-0.4-1.1-0.4c-1,0-1.7,0.4-2.1,1.1s-0.5,1.8-0.5,3.1v4.3c0,0.7-0.2,1.2-0.5,1.5
			s-0.7,0.5-1.2,0.5c-0.5,0-0.9-0.2-1.2-0.5s-0.5-0.8-0.5-1.5v-9.2c0-0.6,0.1-1.1,0.4-1.4s0.6-0.5,1.1-0.5c0.4,0,0.8,0.1,1.1,0.4
			s0.4,0.7,0.4,1.2v0.3c0.6-0.7,1.1-1.2,1.8-1.5s1.3-0.5,2.1-0.5c0.8,0,1.5,0.2,2.1,0.5s1.1,0.8,1.4,1.5c0.5-0.7,1.1-1.1,1.7-1.5
			s1.3-0.5,2.1-0.5c0.9,0,1.6,0.2,2.3,0.5s1.1,0.8,1.4,1.5c0.3,0.6,0.4,1.5,0.4,2.7v6.2c0,0.7-0.2,1.2-0.5,1.5s-0.7,0.5-1.2,0.5
			c-0.5,0-0.9-0.2-1.2-0.5s-0.5-0.8-0.5-1.5v-5.4c0-0.7,0-1.2-0.1-1.7s-0.2-0.8-0.5-1s-0.6-0.4-1.2-0.4c-0.4,0-0.8,0.1-1.2,0.4
			s-0.7,0.6-0.9,1C397.4,391.9,397.3,392.9,397.3,394.2z"/>
		<path d="M419.8,394c0,1-0.1,1.8-0.4,2.6s-0.7,1.5-1.3,2.1s-1.2,1-2,1.3s-1.7,0.5-2.6,0.5c-1,0-1.8-0.2-2.6-0.5s-1.4-0.8-2-1.3
			s-1-1.3-1.3-2.1s-0.4-1.7-0.4-2.6c0-1,0.1-1.9,0.4-2.7s0.7-1.5,1.3-2.1s1.2-1,2-1.3s1.7-0.5,2.6-0.5c1,0,1.8,0.2,2.6,0.5
			s1.5,0.8,2,1.3s1,1.3,1.3,2.1S419.8,393,419.8,394z M416.6,394c0-1.3-0.3-2.3-0.9-3s-1.3-1.1-2.3-1.1c-0.6,0-1.2,0.2-1.7,0.5
			s-0.8,0.8-1.1,1.4s-0.4,1.4-0.4,2.2c0,0.8,0.1,1.6,0.4,2.2s0.6,1.1,1.1,1.4s1,0.5,1.7,0.5c1,0,1.7-0.4,2.3-1.1
			S416.6,395.3,416.6,394z"/>
		<path d="M431.1,398.7v-0.3c-0.4,0.5-0.9,0.9-1.3,1.2s-0.9,0.5-1.4,0.7s-1,0.2-1.6,0.2c-0.8,0-1.5-0.2-2.1-0.5s-1.2-0.8-1.7-1.4
			s-0.8-1.3-1.1-2.1s-0.4-1.7-0.4-2.6c0-2,0.5-3.6,1.5-4.7s2.3-1.7,3.9-1.7c0.9,0,1.7,0.2,2.3,0.5s1.2,0.8,1.9,1.5v-4.7
			c0-0.7,0.1-1.2,0.4-1.5s0.6-0.5,1.1-0.5s0.9,0.2,1.1,0.5s0.4,0.8,0.4,1.4v14.1c0,0.6-0.1,1.1-0.4,1.4s-0.6,0.5-1.1,0.5
			c-0.4,0-0.8-0.2-1.1-0.5S431.1,399.3,431.1,398.7z M424.8,394c0,0.9,0.1,1.6,0.4,2.2s0.6,1.1,1.1,1.4s1,0.5,1.5,0.5
			c0.6,0,1.1-0.1,1.5-0.4s0.8-0.7,1.1-1.3s0.4-1.4,0.4-2.3c0-0.9-0.1-1.6-0.4-2.2s-0.7-1.1-1.1-1.4s-1-0.5-1.6-0.5
			c-0.6,0-1.1,0.2-1.6,0.5s-0.8,0.8-1.1,1.4S424.8,393.1,424.8,394z"/>
		<path d="M446.3,394.8H440c0,0.7,0.2,1.4,0.4,1.9s0.7,1,1.1,1.3s1,0.4,1.6,0.4c0.4,0,0.7,0,1-0.1s0.6-0.2,0.9-0.4s0.6-0.4,0.8-0.6
			s0.6-0.5,1-0.9c0.2-0.1,0.4-0.2,0.7-0.2c0.3,0,0.6,0.1,0.8,0.3s0.3,0.4,0.3,0.8c0,0.3-0.1,0.6-0.3,1s-0.6,0.8-1,1.1
			s-1,0.7-1.7,0.9s-1.5,0.4-2.4,0.4c-2.1,0-3.7-0.6-4.8-1.8s-1.7-2.8-1.7-4.8c0-0.9,0.1-1.8,0.4-2.6s0.7-1.5,1.2-2.1s1.2-1,2-1.3
			s1.7-0.5,2.6-0.5c1.2,0,2.3,0.3,3.2,0.8s1.6,1.2,2,2s0.7,1.7,0.7,2.6c0,0.8-0.2,1.3-0.7,1.6S447.1,394.8,446.3,394.8z M440,393
			h5.8c-0.1-1.1-0.4-1.9-0.9-2.5s-1.2-0.8-2-0.8c-0.8,0-1.5,0.3-2,0.8S440.1,391.9,440,393z"/>
	</g>
	<path d="M185.8,392.1c0.1,0.7-0.1,1.3-0.6,1.7c-0.4,0.4-0.9,0.6-1.4,0.6h-14v10l-16-12l16-12v10h13.9
		C184.7,390.4,185.6,391.1,185.8,392.1z"/>
	<path d="M458,392.7c-0.1-0.7,0.1-1.3,0.6-1.7c0.4-0.4,0.9-0.6,1.4-0.6h14v-10l16,12l-16,12v-10H460
		C459.1,394.4,458.1,393.6,458,392.7z"/>
	<g>
		<path d="M243.2,321.5h0.2c0.4,0,0.8,0.2,1.2,0.5s0.5,0.8,0.5,1.3c0,0.5-0.2,0.9-0.5,1.2s-0.8,0.5-1.3,0.5c-0.6,0-1-0.2-1.4-0.7
			s-0.6-1.1-0.6-2c0-0.8,0.2-1.5,0.5-2.2s0.7-1.2,1.2-1.6s0.9-0.6,1.3-0.6c0.2,0,0.4,0.1,0.6,0.2s0.2,0.3,0.2,0.6
			c0,0.3-0.2,0.6-0.5,0.8c-0.4,0.2-0.7,0.5-1,0.8S243.2,321,243.2,321.5z M248.4,321.5h0.2c0.4,0,0.8,0.2,1.2,0.5s0.5,0.8,0.5,1.3
			c0,0.5-0.2,0.9-0.5,1.2s-0.8,0.5-1.3,0.5c-0.6,0-1.1-0.2-1.4-0.7s-0.6-1.1-0.6-2c0-0.6,0.1-1.2,0.3-1.7s0.4-1,0.8-1.4
			s0.6-0.7,1-0.9s0.7-0.3,1-0.3c0.3,0,0.5,0.1,0.6,0.2s0.2,0.3,0.2,0.6c0,0.4-0.2,0.6-0.5,0.8c-0.4,0.2-0.8,0.5-1,0.8
			S248.4,321,248.4,321.5z"/>
		<path d="M252.6,323h0.8v-1c0-1,0.1-1.8,0.4-2.4s0.7-1,1.3-1.3s1.4-0.4,2.5-0.4c1.9,0,2.8,0.5,2.8,1.4c0,0.3-0.1,0.6-0.3,0.8
			s-0.4,0.3-0.7,0.3c-0.1,0-0.3,0-0.6-0.1s-0.6-0.1-0.8-0.1c-0.6,0-0.9,0.2-1.1,0.5s-0.2,0.8-0.2,1.5v0.8h0.8c1.2,0,1.8,0.4,1.8,1.1
			c0,0.5-0.2,0.9-0.5,1s-0.8,0.2-1.3,0.2h-0.8v8.5c0,0.6-0.2,1.1-0.5,1.4s-0.7,0.5-1.2,0.5c-0.5,0-0.8-0.2-1.1-0.5s-0.5-0.8-0.5-1.4
			v-8.5h-0.9c-0.5,0-0.8-0.1-1.1-0.3s-0.4-0.5-0.4-0.8C251,323.4,251.5,323,252.6,323z"/>
		<path d="M263.2,321.6H263c-0.4,0-0.8-0.2-1.2-0.5s-0.5-0.8-0.5-1.3c0-0.5,0.2-0.9,0.5-1.3s0.8-0.5,1.3-0.5c0.6,0,1.1,0.2,1.4,0.7
			s0.6,1.1,0.6,2c0,0.8-0.2,1.5-0.5,2.2s-0.7,1.2-1.2,1.6s-0.9,0.6-1.3,0.6c-0.2,0-0.4-0.1-0.6-0.2s-0.2-0.3-0.2-0.6
			c0-0.4,0.2-0.6,0.5-0.8c0.4-0.2,0.7-0.5,1-0.8S263.1,322,263.2,321.6z M268.3,321.6h-0.1c-0.4,0-0.8-0.2-1.2-0.5s-0.5-0.8-0.5-1.3
			s0.2-0.9,0.5-1.2s0.8-0.5,1.3-0.5c0.6,0,1.1,0.2,1.4,0.7s0.6,1.1,0.6,2c0,0.8-0.2,1.5-0.5,2.2s-0.7,1.2-1.2,1.6s-0.9,0.6-1.3,0.6
			c-0.2,0-0.4-0.1-0.6-0.2s-0.2-0.3-0.2-0.6c0-0.3,0.2-0.6,0.5-0.8c0.4-0.3,0.8-0.5,1-0.8S268.3,322,268.3,321.6z"/>
		<path d="M278.8,323h0.8v-1c0-1,0.1-1.8,0.4-2.4s0.7-1,1.3-1.3s1.4-0.4,2.5-0.4c1.9,0,2.8,0.5,2.8,1.4c0,0.3-0.1,0.6-0.3,0.8
			s-0.4,0.3-0.7,0.3c-0.1,0-0.3,0-0.6-0.1s-0.6-0.1-0.8-0.1c-0.6,0-0.9,0.2-1.1,0.5s-0.2,0.8-0.2,1.5v0.8h0.8c1.2,0,1.8,0.4,1.8,1.1
			c0,0.5-0.2,0.9-0.5,1s-0.8,0.2-1.3,0.2h-0.8v8.5c0,0.6-0.2,1.1-0.5,1.4s-0.7,0.5-1.2,0.5c-0.5,0-0.8-0.2-1.1-0.5s-0.5-0.8-0.5-1.4
			v-8.5h-0.9c-0.5,0-0.8-0.1-1.1-0.3s-0.4-0.5-0.4-0.8C277.2,323.4,277.7,323,278.8,323z"/>
		<path d="M298.7,329.3c0,1-0.1,1.8-0.4,2.6s-0.7,1.5-1.3,2.1s-1.2,1-2,1.3s-1.7,0.5-2.6,0.5c-1,0-1.8-0.2-2.6-0.5s-1.4-0.8-2-1.3
			s-1-1.3-1.3-2.1s-0.4-1.7-0.4-2.6c0-1,0.1-1.9,0.4-2.7s0.7-1.5,1.3-2.1s1.2-1,2-1.3s1.7-0.5,2.6-0.5c1,0,1.8,0.2,2.6,0.5
			s1.5,0.8,2,1.3s1,1.3,1.3,2.1S298.7,328.3,298.7,329.3z M295.5,329.3c0-1.3-0.3-2.3-0.9-3s-1.3-1.1-2.3-1.1
			c-0.6,0-1.2,0.2-1.7,0.5s-0.8,0.8-1.1,1.4s-0.4,1.4-0.4,2.2c0,0.8,0.1,1.6,0.4,2.2s0.6,1.1,1.1,1.4s1,0.5,1.7,0.5
			c1,0,1.7-0.4,2.3-1.1S295.5,330.6,295.5,329.3z"/>
		<path d="M304.4,331.1v2.7c0,0.6-0.2,1.1-0.5,1.5s-0.7,0.5-1.2,0.5c-0.5,0-0.8-0.2-1.1-0.5s-0.4-0.8-0.4-1.5v-8.9
			c0-1.4,0.5-2.2,1.6-2.2c0.5,0,0.9,0.2,1.1,0.5s0.4,0.8,0.4,1.5c0.4-0.7,0.8-1.2,1.2-1.5s0.9-0.5,1.6-0.5s1.3,0.2,2,0.5
			s0.9,0.8,0.9,1.3c0,0.4-0.1,0.7-0.4,1s-0.6,0.4-0.9,0.4c-0.1,0-0.4-0.1-0.8-0.2s-0.8-0.2-1.2-0.2c-0.5,0-0.9,0.1-1.1,0.4
			s-0.5,0.6-0.7,1.1s-0.3,1.1-0.3,1.7S304.4,330.2,304.4,331.1z"/>
		<path d="M317.9,323h0.4v-1.9c0-0.5,0-0.9,0-1.2s0.1-0.5,0.2-0.8c0.1-0.2,0.3-0.4,0.5-0.5s0.5-0.2,0.8-0.2c0.4,0,0.8,0.2,1.1,0.5
			c0.2,0.2,0.4,0.5,0.4,0.7s0.1,0.7,0.1,1.2v2.2h1.2c0.5,0,0.8,0.1,1,0.3s0.4,0.5,0.4,0.8c0,0.4-0.2,0.7-0.5,0.9s-0.8,0.3-1.5,0.3
			h-0.6v5.9c0,0.5,0,0.9,0.1,1.2s0.1,0.5,0.3,0.7s0.4,0.3,0.7,0.3c0.2,0,0.4,0,0.8-0.1s0.6-0.1,0.8-0.1c0.3,0,0.5,0.1,0.7,0.3
			s0.3,0.5,0.3,0.8c0,0.5-0.3,0.9-0.8,1.2s-1.4,0.4-2.4,0.4c-1,0-1.8-0.2-2.3-0.5s-0.9-0.8-1-1.4s-0.2-1.4-0.2-2.4v-6.1h-0.4
			c-0.5,0-0.8-0.1-1.1-0.3s-0.4-0.5-0.4-0.8s0.1-0.6,0.4-0.8S317.4,323,317.9,323z"/>
		<path d="M334.5,334v-0.4c-0.4,0.5-0.8,0.9-1.2,1.2s-0.9,0.6-1.4,0.7s-1.1,0.2-1.7,0.2c-0.8,0-1.5-0.2-2.1-0.5s-1.1-0.8-1.4-1.3
			c-0.4-0.7-0.6-1.7-0.6-2.9v-6.3c0-0.6,0.1-1.1,0.4-1.4s0.7-0.5,1.1-0.5c0.5,0,0.9,0.2,1.2,0.5s0.4,0.8,0.4,1.4v5.1
			c0,0.7,0.1,1.4,0.2,1.9s0.3,0.9,0.7,1.2s0.8,0.4,1.3,0.4c0.5,0,1-0.2,1.5-0.5s0.8-0.7,1-1.3c0.2-0.5,0.3-1.4,0.3-3v-3.9
			c0-0.6,0.1-1.1,0.4-1.4s0.7-0.5,1.2-0.5s0.9,0.2,1.1,0.5s0.4,0.8,0.4,1.4v9.3c0,0.6-0.1,1.1-0.4,1.4s-0.6,0.5-1.1,0.5
			s-0.8-0.2-1.1-0.5S334.5,334.5,334.5,334z"/>
		<path d="M340.9,323h0.4v-1.9c0-0.5,0-0.9,0-1.2s0.1-0.5,0.2-0.8c0.1-0.2,0.3-0.4,0.5-0.5s0.5-0.2,0.8-0.2c0.4,0,0.8,0.2,1.1,0.5
			c0.2,0.2,0.4,0.5,0.4,0.7s0.1,0.7,0.1,1.2v2.2h1.2c0.5,0,0.8,0.1,1,0.3s0.4,0.5,0.4,0.8c0,0.4-0.2,0.7-0.5,0.9s-0.8,0.3-1.5,0.3
			h-0.6v5.9c0,0.5,0,0.9,0.1,1.2s0.1,0.5,0.3,0.7s0.4,0.3,0.7,0.3c0.2,0,0.4,0,0.8-0.1s0.6-0.1,0.8-0.1c0.3,0,0.5,0.1,0.7,0.3
			s0.3,0.5,0.3,0.8c0,0.5-0.3,0.9-0.8,1.2s-1.4,0.4-2.4,0.4c-1,0-1.8-0.2-2.3-0.5s-0.9-0.8-1-1.4s-0.2-1.4-0.2-2.4v-6.1h-0.4
			c-0.5,0-0.8-0.1-1.1-0.3s-0.4-0.5-0.4-0.8s0.1-0.6,0.4-0.8S340.4,323,340.9,323z"/>
		<path d="M361.2,329.3c0,1-0.1,1.8-0.4,2.6s-0.7,1.5-1.3,2.1s-1.2,1-2,1.3s-1.7,0.5-2.6,0.5c-1,0-1.8-0.2-2.6-0.5s-1.4-0.8-2-1.3
			s-1-1.3-1.3-2.1s-0.4-1.7-0.4-2.6c0-1,0.1-1.9,0.4-2.7s0.7-1.5,1.3-2.1s1.2-1,2-1.3s1.7-0.5,2.6-0.5c1,0,1.8,0.2,2.6,0.5
			s1.5,0.8,2,1.3s1,1.3,1.3,2.1S361.2,328.3,361.2,329.3z M358,329.3c0-1.3-0.3-2.3-0.9-3s-1.3-1.1-2.3-1.1c-0.6,0-1.2,0.2-1.7,0.5
			s-0.8,0.8-1.1,1.4s-0.4,1.4-0.4,2.2c0,0.8,0.1,1.6,0.4,2.2s0.6,1.1,1.1,1.4s1,0.5,1.7,0.5c1,0,1.7-0.4,2.3-1.1
			S358,330.6,358,329.3z"/>
		<path d="M366.9,331.1v2.7c0,0.6-0.2,1.1-0.5,1.5s-0.7,0.5-1.2,0.5c-0.5,0-0.8-0.2-1.1-0.5s-0.4-0.8-0.4-1.5v-8.9
			c0-1.4,0.5-2.2,1.6-2.2c0.5,0,0.9,0.2,1.1,0.5s0.4,0.8,0.4,1.5c0.4-0.7,0.8-1.2,1.2-1.5s0.9-0.5,1.6-0.5s1.3,0.2,2,0.5
			s0.9,0.8,0.9,1.3c0,0.4-0.1,0.7-0.4,1s-0.6,0.4-0.9,0.4c-0.1,0-0.4-0.1-0.8-0.2s-0.8-0.2-1.2-0.2c-0.5,0-0.9,0.1-1.1,0.4
			s-0.5,0.6-0.7,1.1s-0.3,1.1-0.3,1.7S366.9,330.2,366.9,331.1z"/>
		<path d="M375.8,321.3c-0.4,0-0.8-0.1-1.1-0.4s-0.5-0.7-0.5-1.2c0-0.5,0.2-0.8,0.5-1.1s0.7-0.4,1.1-0.4c0.4,0,0.8,0.1,1.1,0.4
			s0.5,0.7,0.5,1.2c0,0.5-0.2,0.9-0.5,1.2S376.2,321.3,375.8,321.3z M377.4,324.6v9.2c0,0.6-0.2,1.1-0.5,1.5s-0.7,0.5-1.2,0.5
			s-0.8-0.2-1.1-0.5s-0.4-0.8-0.4-1.4v-9.2c0-0.6,0.1-1.1,0.4-1.4s0.7-0.5,1.1-0.5s0.9,0.2,1.2,0.5S377.4,324,377.4,324.6z"/>
		<path d="M388.8,334c-0.8,0.6-1.5,1.1-2.2,1.4s-1.5,0.5-2.4,0.5c-0.8,0-1.5-0.2-2.2-0.5s-1.1-0.8-1.4-1.3s-0.5-1.2-0.5-1.8
			c0-0.9,0.3-1.6,0.8-2.2s1.3-1,2.3-1.2c0.2,0,0.7-0.2,1.5-0.3s1.5-0.3,2.1-0.5s1.2-0.3,1.9-0.5c0-0.8-0.2-1.5-0.5-1.9
			s-0.9-0.6-1.9-0.6c-0.8,0-1.4,0.1-1.8,0.3s-0.8,0.6-1.1,1s-0.5,0.8-0.6,0.9s-0.4,0.2-0.8,0.2c-0.4,0-0.7-0.1-0.9-0.3
			s-0.4-0.5-0.4-0.9c0-0.6,0.2-1.1,0.6-1.6s1-1,1.9-1.3s1.9-0.5,3.2-0.5c1.4,0,2.5,0.2,3.3,0.5s1.4,0.9,1.7,1.6s0.5,1.7,0.5,2.9
			c0,0.8,0,1.4,0,1.9s0,1.1,0,1.7c0,0.6,0.1,1.2,0.3,1.9s0.3,1.1,0.3,1.3c0,0.3-0.2,0.6-0.5,0.9s-0.7,0.4-1,0.4
			c-0.3,0-0.7-0.2-1-0.5S389.1,334.5,388.8,334z M388.6,329.3c-0.5,0.2-1.2,0.4-2,0.5s-1.5,0.3-1.9,0.4s-0.7,0.3-1,0.5
			s-0.5,0.6-0.5,1.1c0,0.5,0.2,0.9,0.6,1.2s0.8,0.5,1.4,0.5c0.6,0,1.2-0.1,1.8-0.4s0.9-0.6,1.2-1.1c0.3-0.5,0.4-1.3,0.4-2.4V329.3z"
			/>
		<path d="M395,333.8v-13.9c0-0.6,0.1-1.1,0.4-1.5s0.7-0.5,1.2-0.5s0.9,0.2,1.2,0.5s0.4,0.8,0.4,1.5v13.9c0,0.6-0.2,1.1-0.5,1.5
			s-0.7,0.5-1.2,0.5c-0.5,0-0.8-0.2-1.1-0.5S395,334.4,395,333.8z"/>
	</g>
	<g>
		<g>
			<text transform="matrix(1 0 0 1 -256.0807 584.5584)" style="font-family:'ArialRoundedMTBold'; font-size:24px;">easy mode || hard mode</text>
			<path d="M-264.1,576.4c0.1,0.7-0.1,1.3-0.6,1.7c-0.4,0.4-0.9,0.6-1.4,0.6h-14v10l-16-12l16-12v10h13.9
				C-265.2,574.7-264.2,575.5-264.1,576.4z"/>
			<path d="M8.1,577c-0.1-0.7,0.1-1.3,0.6-1.7c0.4-0.4,0.9-0.6,1.4-0.6h14v-10l16,12l-16,12v-10H10.2C9.2,578.7,8.3,578,8.1,577z"/>
		</g>
		<text transform="matrix(1 0 0 1 -209.6958 519.8292)" style="font-family:'ArialRoundedMTBold'; font-size:24px;">“f” for tutorial</text>
	</g>
</g>
</svg>
